<?xml version="1.0" encoding="utf-8"?>
<!-- Generator: Adobe Illustrator 27.3.1, SVG Export Plug-In . SVG Version: 6.00 Build 0)  -->
<svg version="1.1" id="a" xmlns="http://www.w3.org/2000/svg" xmlns:xlink="http://www.w3.org/1999/xlink" x="0px" y="0px"
	 viewBox="0 0 350 350" style="enable-background:new 0 0 350 350;" xml:space="preserve">
<style type="text/css">
	.st0{fill:#FFFFFF;}
</style>
<path class="st0" d="M323,175.3c0,21.8,0.1,43.7,0,65.5c-0.1,12-5.3,21.3-15.6,27.4c-13.8,8.2-27.8,16-41.7,23.9
	c-23.8,13.7-47.6,27.3-71.5,41c-3.5,2-7.1,4.1-11.1,4.9c-8.5,1.6-16.4,0.3-23.9-4.1c-17.4-10.1-34.8-20.1-52.3-30
	c-20.7-11.9-41.5-23.7-62.2-35.6c-8.1-4.7-12.9-11.9-15-20.9c-0.7-2.9-0.6-6-0.6-8.9c0-39.3,0-78.6,0-117.9c0-4,0-8,0.1-12
	c0.1-8.9,4-16.2,10.1-22.3c2.9-2.9,6.6-4.7,10.2-6.7c15.3-8.8,30.7-17.6,46-26.4c21.7-12.4,43.4-24.9,65.1-37.3
	c6.2-3.6,12.9-4.5,20-3.7c4.6,0.5,8.5,2.3,12.4,4.6c18.6,10.7,37.3,21.4,55.9,32c19.6,11.3,39.3,22.5,58.9,33.8
	c7.7,4.5,12.3,11.4,14.5,19.9c0.6,2.3,0.6,4.7,0.6,7.1C323,131.5,323,153.4,323,175.3L323,175.3z M309.6,175.3L309.6,175.3
	c0-22,0-44.1,0-66.1c0-6.9-3-12.3-9-15.8c-5.2-3.1-10.5-6.1-15.8-9.1c-18.9-10.8-37.8-21.7-56.8-32.5c-14.1-8.1-28.2-16.2-42.3-24.3
	c-3.6-2.1-7.5-2.7-11.6-2.4c-3.4,0.2-6.2,1.7-9,3.3c-20,11.5-39.9,22.9-59.9,34.3C87.1,73,69.2,83.3,51.2,93.6
	c-2.1,1.2-3.9,2.8-5.3,4.9c-2.7,3.8-3.6,8-3.6,12.6c0.1,43.2,0,86.5,0.1,129.8c0,7.3,3.3,12.9,9.7,16.6c9.7,5.6,19.5,11.2,29.2,16.8
	c28.3,16.2,56.6,32.4,84.9,48.6c6.5,3.7,13,3.8,19.5,0.1c14.8-8.5,29.5-16.9,44.3-25.4c23.3-13.4,46.6-26.7,70-40.1
	c6.4-3.6,9.6-9.1,9.6-16.5C309.6,219.1,309.6,197.2,309.6,175.3L309.6,175.3z"/>
<path class="st0" d="M148,218.3c1.7-4.4,3.4-8.7,5-12.9c5.2-13.5,10.4-26.9,15.6-40.4c0.1-0.4,0.7-0.8,1.1-0.8
	c4.3-0.1,8.6-0.1,12.9,0c0.4,0,1,0.4,1.1,0.8c6.4,16.6,12.9,33.3,19.3,49.9c0.4,1.1,0.9,2.2,1.3,3.4c-0.4,0.1-0.6,0.1-0.9,0.1
	c-3.8,0-7.5,0-11.2,0c-0.9,0-1.2-0.3-1.5-1.1c-0.8-2.6-1.8-5.1-2.7-7.6c-0.1-0.3-0.7-0.7-1.1-0.7c-7.2,0-14.4-0.1-21.6,0
	c-0.4,0-0.9,0.5-1.1,0.9c-1,2.5-1.9,5-2.7,7.5c-0.3,0.8-0.7,1.1-1.5,1.1c-3.8-0.1-7.5,0-11.2-0.1C148.5,218.4,148.3,218.3,148,218.3
	L148,218.3z M176.3,176.2c-0.1,0-0.2,0-0.3,0c-2.7,7.5-5.5,15.1-8.2,22.6h16.8C181.8,191.2,179,183.7,176.3,176.2L176.3,176.2z"/>
<path class="st0" d="M283.6,164.2c0,3.3,0,6.4,0,9.5c0,0.8-0.5,0.8-1.1,0.8c-4.5-0.1-9.1,0-13.6-0.1c-0.9,0-1.2,0.2-1.2,1.2
	c0,13.9,0,27.8,0.1,41.6c0,1-0.2,1.4-1.3,1.4c-3.1-0.1-6.2,0-9.4,0c-0.6,0-1,0-1-0.8c0.1-7.1,0.1-14.2,0.1-21.4c0-6.9,0-13.8,0-20.6
	c0-1-0.1-1.3-1.3-1.3c-4.4,0.1-8.8,0-13.2,0.1c-1.1,0-1.4-0.3-1.4-1.4c0.1-2.6,0-5.2,0-7.8c0-0.7,0.1-1.1,1-1.1
	c12.9,0,25.7,0,38.6,0C281.1,164.2,282.3,164.2,283.6,164.2L283.6,164.2z"/>
<path class="st0" d="M221,164.2v44.1h23c0,2.5,0,4.8,0,7.1c0,3.1,0,3.1-3,3.1c-10,0-20.1,0-30.1,0c-1.2,0-1.5-0.3-1.5-1.5
	c0.1-6.7,0.1-13.4,0.1-20.1c0-10,0-20,0-30c0-1.8,0.9-2.7,2.7-2.7C215,164.2,217.9,164.2,221,164.2L221,164.2z"/>
<path class="st0" d="M151.1,250.4v-23.7c0.5,0,1-0.1,1.5-0.1c2.7,0,5.4-0.1,8.1,0c1,0,2,0.2,2.9,0.5c4.3,1.2,5.1,5.7,3.5,8.9
	c-0.5,1-1.6,1.7-2.5,2.6c0.1,0,0.2,0.2,0.4,0.4c2.4,1.4,3.6,3.8,3.2,6.4c-0.4,2.6-2.3,4.8-5.1,5
	C159.1,250.6,155.1,250.4,151.1,250.4L151.1,250.4z M154.1,239.9v7.8c2.7,0,5.3,0.1,7.9,0c2-0.1,3.2-1.6,3.2-3.6
	c0.1-2.4-1.4-4.1-4-4.2C158.9,239.9,156.5,239.9,154.1,239.9L154.1,239.9z M154,237.3c2.7,0,5.2,0.1,7.7,0c1.8-0.1,3-1.6,3.1-3.6
	c0.1-1.9-0.9-3.9-2.6-4.1c-2.7-0.2-5.5-0.1-8.3-0.1L154,237.3L154,237.3z"/>
<path class="st0" d="M267,232.1v18.1c-0.2,0.1-0.2,0.2-0.2,0.2c-1.8,0.2-2.8-0.6-2.8-2.4c0-6.6,0-13.2,0-19.9c0-0.4,0-0.9,0-1.3
	c2.1-0.6,2.8-0.4,4,1.3c3.1,4.2,6.2,8.5,9.3,12.7c0.9,1.3,1.8,2.6,3,4.2c0-0.8,0-1.2,0-1.6c0-5.1,0-10.2,0-15.4
	c0-1.1,0.3-1.5,1.4-1.5c0.9,0.1,1.8-0.1,1.8,1.4c-0.1,6.9,0,13.9-0.1,20.9c0,0.5-0.3,1.5-0.5,1.5c-1,0.1-2,0.6-2.8-0.6
	c-2.7-3.8-5.4-7.6-8.1-11.4c-1.5-2.1-3.1-4.2-4.6-6.4C267.2,232.1,267.1,232.1,267,232.1L267,232.1z"/>
<path class="st0" d="M259.3,238.5c0,6.8-4.9,11.9-11.4,12c-6.5,0-11.6-5.1-11.5-11.9c0.1-7.2,4.6-11.8,11.3-11.9
	C254.4,226.6,259.2,231.4,259.3,238.5L259.3,238.5z M256.3,238.4c0-0.2,0-0.7-0.1-1.2c-0.4-4.2-3.1-7.2-7.1-7.8
	c-3.9-0.6-7.4,1.3-9,5c-0.9,2-0.9,4.1-0.6,6.3c0.7,4.8,4.7,7.7,9.5,7.1C253.4,247.3,256.3,243.7,256.3,238.4L256.3,238.4z"/>
<path class="st0" d="M212.6,250.5c-1.1,0-2,0.1-2.9,0c-0.3,0-0.6-0.4-0.7-0.7c-0.4-0.8-0.6-1.7-1-2.6c-0.8-2-0.8-2-2.8-2.1
	c-2.8,0-5.5,0-8.2,0c-0.8,0-1.3,0.2-1.6,1.1c-0.4,1.1-0.9,2.2-1.2,3.3c-0.2,0.8-0.6,1.2-1.5,1.1c-0.7-0.1-1.4,0-2.3,0
	c1.1-2.8,2.1-5.4,3.1-8c1.9-4.9,3.9-9.8,5.7-14.8c0.6-1.5,1.6-1.1,2.6-1.2c0.9-0.1,1.5,0.2,1.8,1.2c2.8,7.2,5.6,14.4,8.5,21.6
	C212.3,249.7,212.4,249.9,212.6,250.5L212.6,250.5z M206.3,242.5c-1.6-4.2-3.1-8.2-4.6-12.2c-0.1,0-0.2,0-0.3-0.1
	c-1.5,4-3.1,8.1-4.7,12.3L206.3,242.5L206.3,242.5z"/>
<path class="st0" d="M176.1,239.9v8c1,0,1.9,0,2.8,0c2.8,0,5.7,0.1,8.5,0c1.1,0,0.9,0.7,0.9,1.3c0,0.6,0.2,1.3-0.8,1.3
	c-4.5,0-9.1,0-13.6,0c-0.7,0-0.8-0.3-0.8-0.9c0-7.4,0-14.7,0-22.1c0-0.3,0.4-0.8,0.8-0.8c0.8-0.1,1.6-0.1,2.4-0.1
	c3.7,0,7.3,0.1,11,0c1.1,0,1.2,0.6,1.2,1.4c0,0.9-0.2,1.2-1.2,1.2c-3.3-0.1-6.6,0-9.9,0c-1,0-1.3,0.3-1.2,1.3c0.1,1.8,0.1,3.6,0,5.4
	c-0.1,1.3,0.4,1.5,1.6,1.5c3.1-0.1,6.2,0,9.2,0c0.8,0,1.4,0.1,1.3,1.1c0,0.9-0.2,1.4-1.3,1.4C183.3,239.9,179.7,239.9,176.1,239.9
	L176.1,239.9z"/>
<path class="st0" d="M233.6,231.1c-0.3,0.3-0.6,0.5-0.9,0.7c-0.7,0.6-1.2,0.6-2-0.1c-4.1-4-10.8-3-13.4,2.2
	c-2.9,5.8,0,13.4,7.1,13.9c2.2,0.2,4.3-0.4,5.8-2.1c1-1.1,1.8-1.1,2.9-0.2c0.2,0.1,0.3,0.2,0.5,0.4c-1.7,3.2-6.8,5.3-10.9,4.4
	c-5.7-1.2-9.2-5.4-9.5-11.3c-0.3-5.1,2.9-9.9,7.6-11.5C225.9,225.8,230.9,227.2,233.6,231.1L233.6,231.1z"/>
</svg>
