<?xml version="1.0" encoding="UTF-8"?><svg id="a" xmlns="http://www.w3.org/2000/svg" width="800" height="796.47" viewBox="0 0 800 796.47"><defs><style>.b{fill:#fff;}</style></defs><path class="b" d="m400,0C179.43,0,0,179.43,0,400c0,202.57,151.37,370.43,346.93,396.47v-12.13C158.03,758.37,12,595.93,12,400,12,186.07,186.07,12,400,12s388,174.07,388,388c0,195.93-146,358.37-334.93,384.33v12.13c195.57-26.03,346.93-193.9,346.93-396.47C800,179.43,620.57,0,400,0h0Zm0,56.53c-188.43,0-341.7,153.27-341.7,341.67,0,170.4,125.33,312.07,288.67,337.63v-12.2c-156.67-25.43-276.67-161.67-276.67-325.4,0-181.8,147.9-329.67,329.7-329.67s329.7,147.87,329.7,329.67c0,163.73-120,299.97-276.67,325.4v12.2c163.33-25.57,288.67-167.23,288.67-337.6,0-188.43-153.27-341.67-341.7-341.67v-.03Zm0,57.87c-156.5,0-283.83,127.33-283.83,283.83,0,138.37,99.53,253.93,230.77,278.83v-12.23c-124.57-24.73-218.77-134.87-218.77-266.6,0-149.87,121.97-271.83,271.83-271.83s271.8,121.97,271.8,271.83c0,131.73-94.17,241.87-218.73,266.6v12.23c131.23-24.9,230.77-140.47,230.77-278.83,0-156.5-127.33-283.83-283.83-283.83h0Zm0,57.5c-124.94.15-226.19,101.39-226.33,226.33,0,106.53,74,196.1,173.27,220.07v-12.4c-92.6-23.67-161.27-107.8-161.27-207.67.13-118.32,96.01-214.2,214.33-214.33,118.32.13,214.2,96.01,214.33,214.33,0,99.87-68.67,184-161.27,207.67v12.4c99.3-23.97,173.27-113.53,173.27-220.07-.15-124.94-101.39-226.19-226.33-226.33Zm0,58.3c-92.76.11-167.92,75.28-168.03,168.03.11,72.32,46.41,136.49,115,159.4v-12.67c-61.77-22.39-102.95-81.03-103.03-146.73,0-86,70-156,156.03-156s156,70,156,156c-.07,65.68-41.2,124.31-102.93,146.73v12.67c68.61-22.9,114.92-87.07,115.03-159.4-.13-92.76-75.31-167.91-168.07-168v-.03Zm0,57.9c-60.79.07-110.06,49.34-110.13,110.13,0,41.5,23.07,77.67,57.07,96.47v-14c-45.57-29.31-58.75-90.01-29.44-135.57,29.31-45.57,90.01-58.75,135.57-29.44s58.75,90.01,29.44,135.57c-7.59,11.81-17.63,21.85-29.44,29.44v14c35.18-19.36,57.04-56.32,57.07-96.47-.07-60.79-49.34-110.06-110.13-110.13Zm0,57.07c-29.31,0-53.07,23.76-53.07,53.07s23.76,53.07,53.07,53.07,53.07-23.76,53.07-53.07-23.76-53.07-53.07-53.07Z"/></svg>